<svg width="33" height="41" viewBox="0 0 33 41" fill="none" xmlns="http://www.w3.org/2000/svg">
<path d="M14.2569 31C12.6364 31 11.0823 30.4521 9.93639 29.477C8.79053 28.5018 8.14679 27.1791 8.14679 25.8V11.9333C8.14679 10.0945 9.00511 8.33098 10.5329 7.03073C12.0607 5.73047 14.1329 5 16.2936 5C18.4542 5 20.5264 5.73047 22.0542 7.03073C23.582 8.33098 24.4404 10.0945 24.4404 11.9333V28.4C24.4404 28.6299 24.3331 28.8503 24.1421 29.0128C23.9511 29.1754 23.6921 29.2667 23.422 29.2667C23.1519 29.2667 22.8929 29.1754 22.7019 29.0128C22.511 28.8503 22.4037 28.6299 22.4037 28.4V11.9333C22.4037 10.5542 21.7599 9.23157 20.6141 8.25638C19.4682 7.28119 17.9141 6.73333 16.2936 6.73333C14.6731 6.73333 13.119 7.28119 11.9731 8.25638C10.8272 9.23157 10.1835 10.5542 10.1835 11.9333V25.8C10.1835 26.7194 10.6126 27.6012 11.3766 28.2513C12.1405 28.9014 13.1766 29.2667 14.2569 29.2667C15.3372 29.2667 16.3733 28.9014 17.1372 28.2513C17.9011 27.6012 18.3303 26.7194 18.3303 25.8V12.8C18.3303 12.3403 18.1157 11.8994 17.7337 11.5743C17.3518 11.2493 16.8337 11.0667 16.2936 11.0667C15.7534 11.0667 15.2354 11.2493 14.8534 11.5743C14.4715 11.8994 14.2569 12.3403 14.2569 12.8V24.0667C14.2569 24.2965 14.1496 24.517 13.9586 24.6795C13.7676 24.842 13.5086 24.9333 13.2385 24.9333C12.9685 24.9333 12.7094 24.842 12.5185 24.6795C12.3275 24.517 12.2202 24.2965 12.2202 24.0667V12.8C12.2202 11.8806 12.6493 10.9988 13.4133 10.3487C14.1772 9.69857 15.2132 9.33333 16.2936 9.33333C17.3739 9.33333 18.41 9.69857 19.1739 10.3487C19.9378 10.9988 20.367 11.8806 20.367 12.8V25.8C20.367 27.1791 19.7232 28.5018 18.5774 29.477C17.4315 30.4521 15.8774 31 14.2569 31Z" fill="#C1BCBC"/>
</svg>
